<svg viewBox="0 0 149.939 140" xmlns="http://www.w3.org/2000/svg" xmlns:xlink="http://www.w3.org/1999/xlink" width="149.938599" height="140.000000" fill="none" customFrame="#000000">
	<rect id="Frame" width="149.938004" height="140.000000" x="0.000610" y="0.000000" />
	<path id="Vector" d="M0.0105551 99.8007C0.021189 99.8558 0.0379579 99.9094 0.0605478 99.9607C0.0705463 99.9907 0.0805449 100.031 0.0905434 100.061L11.4989 119.818L11.5289 119.848C11.5489 119.878 11.5689 119.908 11.5989 119.948C11.6375 119.99 11.6811 120.027 11.7288 120.058C11.7588 120.078 11.7788 120.108 11.8088 120.128C11.8206 120.136 11.8347 120.139 11.8488 120.138C11.962 120.201 12.0891 120.235 12.2188 120.238L57.3521 120.238L68.5205 139.575L68.5505 139.605C68.5705 139.635 68.5905 139.665 68.6205 139.705C68.6591 139.747 68.7028 139.784 68.7505 139.815C68.7805 139.835 68.8005 139.865 68.8305 139.885C68.8422 139.893 68.8564 139.896 68.8704 139.895C68.9836 139.958 69.1107 139.992 69.2404 139.995L137.68 139.995C137.813 139.993 137.944 139.958 138.06 139.895L138.15 139.835C138.235 139.778 138.31 139.707 138.37 139.625C138.38 139.605 138.41 139.595 138.42 139.575L149.829 119.818C149.839 119.798 149.839 119.788 149.849 119.768C149.866 119.736 149.88 119.703 149.889 119.668C149.899 119.628 149.909 119.598 149.919 119.558C149.927 119.522 149.93 119.485 149.929 119.448C149.929 119.428 149.939 119.418 149.939 119.398C149.939 119.378 149.929 119.368 149.929 119.348C149.929 119.308 149.919 119.278 149.919 119.238C149.919 119.198 149.899 119.168 149.889 119.128C149.877 119.094 149.864 119.061 149.849 119.028C149.839 119.008 149.839 118.998 149.829 118.978L127.262 79.8937L138.42 60.5565C138.43 60.5365 138.43 60.5265 138.44 60.5065C138.458 60.475 138.471 60.4414 138.48 60.4065C138.49 60.3665 138.5 60.3365 138.51 60.2965C138.519 60.2605 138.522 60.2235 138.52 60.1865C138.52 60.1665 138.53 60.1565 138.53 60.1365C138.53 60.1166 138.52 60.1066 138.52 60.0866C138.52 60.0466 138.51 60.0166 138.51 59.9766C138.51 59.9366 138.49 59.9066 138.48 59.8666C138.469 59.8326 138.455 59.7992 138.44 59.7666C138.43 59.7466 138.43 59.7366 138.42 59.7166L104.215 0.435308C104.195 0.405312 104.165 0.385315 104.145 0.35532C104.111 0.309945 104.074 0.266548 104.035 0.225339C103.994 0.192006 103.951 0.161919 103.905 0.135352C103.862 0.106117 103.815 0.0825943 103.765 0.0653622C103.707 0.0462327 103.646 0.0328384 103.585 0.0253681C103.555 0.0253681 103.525 0.00537109 103.485 0.00537109L80.6687 0.00537109C80.6487 0.00537109 80.6387 0.0153696 80.6187 0.0153696C80.5787 0.0153696 80.5487 0.0253681 80.5087 0.0253681L80.3888 0.0553637C80.3588 0.0653622 80.3188 0.0853594 80.2888 0.0953579C80.2588 0.105356 80.2588 0.105356 80.2388 0.115355C80.2274 0.127705 80.2138 0.137871 80.1988 0.145351C80.1664 0.1655 80.1363 0.188956 80.1088 0.21534C80.0797 0.239424 80.0529 0.266206 80.0288 0.295329C80.0088 0.325324 79.9788 0.35532 79.9588 0.385315C79.9465 0.396709 79.9363 0.410263 79.9288 0.425309L57.3621 39.5196L35.0454 39.5196C35.0254 39.5196 35.0154 39.5296 34.9954 39.5296C34.9554 39.5296 34.9254 39.5396 34.8854 39.5396C34.8454 39.5396 34.8054 39.5596 34.7755 39.5696C34.7415 39.5812 34.7081 39.5945 34.6755 39.6096C34.6555 39.6196 34.6455 39.6196 34.6255 39.6296C34.6055 39.6396 34.6055 39.6496 34.5855 39.6596C34.5531 39.6797 34.523 39.7032 34.4955 39.7295C34.4664 39.7536 34.4396 39.7804 34.4155 39.8095C34.3955 39.8395 34.3655 39.8695 34.3455 39.8995C34.3332 39.9109 34.323 39.9245 34.3155 39.9395L0.100542 99.2208C0.0860027 99.2526 0.0759095 99.2863 0.0705463 99.3208C0.0493574 99.3726 0.0326324 99.4261 0.0205537 99.4808C0.00468258 99.5325 -0.00208351 99.5867 0.0005566 99.6408C-0.00109886 99.6943 0.00224853 99.7478 0.0105551 99.8007ZM102.995 1.70512L136.241 59.2867L115.384 59.2867L82.1285 1.70512L102.995 1.70512ZM114.404 98.8009L93.5368 98.8009L115.374 60.9664L136.241 60.9664L114.404 98.8009ZM80.6687 2.545L113.914 60.1265L92.077 97.961L81.6486 79.8837L92.8169 60.5465C92.8269 60.5265 92.8269 60.5165 92.8369 60.4965C92.8545 60.465 92.868 60.4314 92.8769 60.3965C92.8869 60.3565 92.8969 60.3265 92.9069 60.2865C92.9152 60.2505 92.9186 60.2135 92.9169 60.1765C92.9169 60.1565 92.9269 60.1465 92.9269 60.1265C92.9269 60.1066 92.9169 60.0966 92.9169 60.0766C92.9169 60.0366 92.9069 60.0066 92.9069 59.9666C92.9069 59.9266 92.8869 59.8966 92.8769 59.8566C92.8653 59.8226 92.852 59.7892 92.8369 59.7566C92.8269 59.7366 92.8269 59.7266 92.8169 59.7066L81.3986 39.9495C81.3786 39.9195 81.3486 39.8995 81.3286 39.8695C81.2944 39.8241 81.2577 39.7808 81.2186 39.7395C81.1777 39.7062 81.1343 39.6761 81.0887 39.6496C81.0441 39.6223 80.9973 39.5988 80.9487 39.5796C80.8941 39.5599 80.8367 39.5498 80.7787 39.5496C80.7487 39.5496 80.7087 39.5296 80.6787 39.5296L59.3219 39.5296L80.6687 2.545ZM57.8621 41.2193L80.1888 41.2193L90.6273 59.2867L46.9437 59.2867L36.5052 41.2193L57.8621 41.2193ZM35.0454 42.0592L45.4739 60.1265L12.2288 117.708L1.80029 99.6408L35.0454 42.0592ZM13.6985 118.548L46.9437 60.9664L90.6273 60.9664L80.1888 79.0438L57.8621 79.0438C57.8421 79.0438 57.8321 79.0538 57.8121 79.0538C57.7721 79.0538 57.7421 79.0638 57.7021 79.0638L57.5821 79.0938C57.5521 79.1038 57.5121 79.1238 57.4821 79.1338C57.4521 79.1438 57.4521 79.1438 57.4321 79.1538C57.4207 79.1661 57.4072 79.1763 57.3921 79.1838C57.3598 79.2039 57.3296 79.2274 57.3021 79.2537C57.273 79.2778 57.2462 79.3046 57.2222 79.3337C57.2022 79.3637 57.1722 79.3937 57.1522 79.4237C57.1422 79.4337 57.1222 79.4437 57.1222 79.4637L45.7138 99.2208C45.6993 99.2526 45.6892 99.2863 45.6838 99.3208C45.6627 99.3726 45.6459 99.4261 45.6339 99.4808C45.6252 99.5336 45.6219 99.5872 45.6239 99.6408C45.6222 99.6943 45.6255 99.7478 45.6339 99.8007C45.6445 99.8558 45.6613 99.9094 45.6838 99.9607C45.6938 99.9907 45.7038 100.031 45.7138 100.061L56.3923 118.548L13.6985 118.548ZM137.22 138.305L70.7302 138.305L81.1586 120.238L147.649 120.238L137.22 138.305ZM69.2704 137.465L47.4336 99.6408L57.8721 81.5634L79.7089 119.388L69.2704 137.465ZM147.649 118.548L81.1586 118.548L59.3219 80.7235L80.1888 80.7235L91.3572 100.061L91.3871 100.091C91.4071 100.126 91.4305 100.16 91.4571 100.191C91.4958 100.233 91.5394 100.27 91.5871 100.301C91.6171 100.321 91.6371 100.351 91.6671 100.371C91.6788 100.379 91.693 100.382 91.7071 100.381C91.8203 100.444 91.9474 100.478 92.077 100.481L114.894 100.481C115.027 100.478 115.157 100.444 115.274 100.381L115.364 100.321C115.449 100.264 115.523 100.193 115.584 100.111C115.594 100.091 115.624 100.081 115.634 100.061L126.312 81.5634L147.649 118.548Z" fill="rgb(255,255,255)" fill-rule="nonzero" />
</svg>
