<svg viewBox="0 0 139.969 121.438" xmlns="http://www.w3.org/2000/svg" xmlns:xlink="http://www.w3.org/1999/xlink" width="139.969116" height="121.437500" fill="none" customFrame="#000000">
	<rect id="Frame" width="139.968750" height="121.437500" x="0.000366" y="0.000000" />
	<path id="Vector" d="M0.020425 108.189C0.0325637 108.241 0.0492805 108.291 0.070398 108.339C0.0758401 108.37 0.0859484 108.401 0.100388 108.429L7.37824 121.047L7.40823 121.077C7.42837 121.109 7.45183 121.139 7.47822 121.167C7.51821 121.207 7.55819 121.237 7.59818 121.277C7.62817 121.297 7.63817 121.327 7.66817 121.337C7.6799 121.345 7.69404 121.348 7.70813 121.347C7.81668 121.402 7.93619 121.433 8.05803 121.437L131.892 121.437C132.013 121.433 132.133 121.402 132.241 121.347C132.271 121.327 132.291 121.307 132.321 121.287C132.402 121.236 132.471 121.167 132.521 121.087C132.531 121.067 132.551 121.057 132.571 121.037L139.859 108.419C139.869 108.409 139.869 108.389 139.879 108.379C139.898 108.349 139.912 108.315 139.919 108.279C139.929 108.249 139.939 108.209 139.949 108.179C139.957 108.147 139.961 108.113 139.959 108.079C139.959 108.059 139.969 108.049 139.969 108.029C139.969 108.009 139.959 107.999 139.959 107.979C139.959 107.959 139.949 107.909 139.949 107.879C139.949 107.849 139.929 107.809 139.919 107.779C139.908 107.745 139.895 107.712 139.879 107.679C139.869 107.669 139.869 107.649 139.859 107.639L77.9474 0.390654C77.93 0.365266 77.9099 0.341806 77.8875 0.320668C77.8562 0.276074 77.8192 0.235744 77.7775 0.200692C77.6991 0.142965 77.6154 0.0927528 77.5276 0.0507217C77.4755 0.0350103 77.4219 0.0249546 77.3676 0.0207279C77.3376 0.0207279 77.3076 0.000732422 77.2677 0.000732422L62.7019 0.000732422C62.6819 0.000732422 62.672 0.0107297 62.652 0.0107297C62.632 0.0107297 62.582 0.0207279 62.552 0.0207279L62.442 0.0507217C62.4077 0.061427 62.3743 0.0747984 62.3421 0.0907137C62.3303 0.0986659 62.3162 0.102208 62.3021 0.100712C62.2907 0.113062 62.2771 0.123226 62.2621 0.130706C62.2337 0.14825 62.2069 0.168328 62.1821 0.190694C62.153 0.214777 62.1262 0.241557 62.1021 0.270678C62.0821 0.300672 62.0621 0.320668 62.0421 0.350662C62.0298 0.362055 62.0196 0.375608 62.0121 0.390654L0.0903812 107.649C0.0759416 107.678 0.0658333 107.708 0.0603912 107.739C0.0392585 107.788 0.0225413 107.838 0.0104182 107.889C0.00211188 107.939 -0.00124679 107.989 0.000411342 108.039C0.0104084 108.089 0.0104279 108.139 0.020425 108.189ZM76.8178 1.57042L137.83 107.249L31.2812 107.249L37.6593 96.2116L117.346 96.2116C117.469 96.2106 117.59 96.176 117.696 96.1116C117.706 96.1016 117.726 96.1116 117.736 96.1016C117.761 96.0841 117.785 96.064 117.806 96.0416C117.848 96.0077 117.888 95.971 117.926 95.9316C117.956 95.894 117.983 95.8539 118.006 95.8117C118.036 95.7736 118.056 95.7291 118.066 95.6817C118.086 95.6309 118.096 95.5765 118.096 95.5217C118.096 95.4917 118.116 95.4617 118.116 95.4217C118.116 95.4017 118.106 95.3917 118.106 95.3717C118.1 95.3209 118.09 95.2707 118.076 95.2218C118.063 95.1704 118.047 95.1202 118.026 95.0718C118.016 95.0618 118.016 95.0418 118.006 95.0318L64.0515 1.57042L76.8178 1.57042ZM131.452 119.867L9.42763 119.867L62.7019 27.5852L69.0801 38.623L29.2318 107.639C29.2238 107.651 29.2203 107.665 29.2218 107.679C29.2007 107.728 29.1839 107.778 29.1718 107.829C29.157 107.878 29.147 107.928 29.1418 107.979C29.1418 107.999 29.1318 108.009 29.1318 108.029C29.1318 108.049 29.1518 108.089 29.1518 108.129C29.157 108.183 29.167 108.237 29.1818 108.289C29.2018 108.339 29.2218 108.379 29.2418 108.419C29.2661 108.461 29.2928 108.501 29.3218 108.539C29.3618 108.579 29.4018 108.609 29.4417 108.649C29.4717 108.669 29.4817 108.699 29.5117 108.709C29.5217 108.719 29.5417 108.709 29.5517 108.719C29.6596 108.778 29.779 108.812 29.9016 108.819L137.81 108.819L131.452 119.867ZM101.411 94.6419L38.5591 94.6419L69.9898 40.2027L101.411 94.6419ZM62.7019 2.36026L115.976 94.6419L103.23 94.6419L63.3917 25.6256C63.3794 25.6142 63.3692 25.6007 63.3617 25.5856C63.3318 25.5456 63.2918 25.5057 63.2618 25.4657C63.2265 25.4271 63.1861 25.3935 63.1418 25.3657C63.1304 25.3533 63.1169 25.3432 63.1018 25.3357C63.0735 25.3212 63.0432 25.3111 63.0118 25.3057C62.9635 25.2846 62.9133 25.2678 62.8619 25.2557C62.7624 25.2424 62.6615 25.2424 62.562 25.2557C62.5106 25.2678 62.4604 25.2846 62.412 25.3057C62.3807 25.3111 62.3504 25.3212 62.322 25.3357C62.3107 25.348 62.2971 25.3582 62.2821 25.3657C62.2421 25.3957 62.2021 25.4357 62.1621 25.4657C62.1208 25.4983 62.0868 25.5391 62.0621 25.5856C62.0498 25.597 62.0396 25.6106 62.0322 25.6256L8.07805 119.087L1.69992 108.049L62.7019 2.36026Z" fill="rgb(255,255,255)" fill-rule="nonzero" />
</svg>
