<svg viewBox="0 0 121.219 139.969" xmlns="http://www.w3.org/2000/svg" xmlns:xlink="http://www.w3.org/1999/xlink" width="121.218750" height="139.968750" fill="none" customFrame="#000000">
	<rect id="Frame" width="121.218750" height="139.968750" x="0.000000" y="0.000000" />
	<g id="Group">
		<path id="Vector" d="M121.219 34.9949L100.522 23.0468L81.3158 34.1351L81.3158 11.9486L60.6094 0.000488281L39.913 11.9486L39.913 34.1251L20.7064 23.0368L0 34.9949L0 58.9012L19.2067 69.9894L0 81.0776L0 104.984L20.6964 116.932L39.903 105.844L39.903 128.02L60.5994 139.968L81.2957 128.02L81.2957 105.844L100.502 116.932L121.219 104.984L121.219 81.0776L102.012 69.9894L121.219 58.9012L121.219 34.9949ZM100.522 24.7666L118.989 35.4249L81.4357 57.1714L81.3158 35.8548L100.522 24.7666ZM79.826 36.7147L79.946 58.0413L61.3593 68.8096L61.3593 24.3366L79.826 13.6783L79.826 36.7147ZM41.4028 13.6783L59.8596 24.3366L59.8596 68.8096L41.4028 58.1213L41.4028 13.6783ZM20.6964 24.7666L39.903 35.8548L39.903 57.2414L2.23966 35.4249L20.6964 24.7666ZM1.48979 58.0413L1.48979 36.7247L39.1632 58.5412L20.7064 69.1295L1.48979 58.0413ZM1.48979 104.124L1.48979 82.8074L19.9465 93.4657L19.9465 114.782L1.48979 104.124ZM2.23966 81.5076L21.0763 70.6393L40.6629 59.4011L59.1196 70.0894L20.7064 92.1659L2.23966 81.5076ZM59.8596 137.819L41.4028 127.16L41.4028 104.984L59.8596 94.3255L59.8596 137.819ZM41.4028 103.264L40.283 103.914L21.4463 114.792L21.4463 93.4757L59.8596 71.3992L59.8596 92.6058L41.4028 103.264ZM60.6094 23.0468L42.1526 12.3885L60.6094 1.73021L79.0662 12.3885L60.6094 23.0468ZM79.816 127.16L61.3593 137.819L61.3593 94.3255L79.816 104.984L79.816 127.16ZM99.7726 114.782L80.9358 103.904L79.816 103.254L61.3593 92.5958L61.3593 71.3892L99.7726 93.4657L99.7726 114.782ZM119.729 104.124L101.272 114.782L101.272 93.2857L119.729 82.7974L119.729 104.124ZM118.969 81.5076L100.362 92.0859L62.0992 70.0994L80.6859 59.3311L99.0327 69.9894L99.6526 70.3493L100.023 70.5693L100.142 70.6393L118.969 81.5076ZM119.729 58.0413L100.522 69.1295L82.1856 58.4712L119.739 36.7247L119.739 58.0413L119.729 58.0413Z" fill="rgb(255,255,255)" fill-rule="nonzero" />
	</g>
</svg>
