<svg viewBox="0 0 139.001 142.081" xmlns="http://www.w3.org/2000/svg" xmlns:xlink="http://www.w3.org/1999/xlink" width="139.000732" height="142.080811" fill="none" customFrame="#000000">
	<rect id="Frame" width="138.921997" height="142.000000" x="0.078857" y="0.078857" />
	<path id="Vector" d="M111.6 13.9399C99.1855 5.1215 84.2354 0.589281 69.0142 1.02982C53.7931 1.47036 39.13 6.85965 27.2466 16.3813C15.3631 25.903 6.90669 39.0382 3.15818 53.7971C-0.590328 68.5561 0.573391 84.1347 6.47307 98.1729C12.3728 112.211 22.687 123.944 35.8532 131.595C49.0194 139.245 64.3203 142.396 79.438 140.57C94.5557 138.744 108.666 132.041 119.633 121.476L119.663 121.476L120.233 120.906C122.983 118.143 124.526 114.402 124.521 110.504C124.517 106.605 122.966 102.867 120.21 100.111C117.453 97.3539 113.715 95.8033 109.817 95.7989C105.918 95.7946 102.177 97.3368 99.4138 100.087L99.4138 100.077C93.7785 105.593 86.6576 109.346 78.9226 110.877C71.1875 112.408 63.174 111.651 55.8626 108.698C48.5511 105.745 42.259 100.725 37.7563 94.2523C33.2536 87.7792 30.7356 80.1339 30.5106 72.252C30.2855 64.3701 32.3631 56.5935 36.4891 49.8741C40.6151 43.1546 46.6106 37.7837 53.7417 34.4188C60.8727 31.0538 68.83 29.8407 76.6398 30.9279C84.4496 32.0152 91.7732 35.3556 97.714 40.5404L99.6838 42.5203C100.604 43.4533 101.119 44.7125 101.114 46.0233C101.11 47.334 100.587 48.5898 99.6605 49.5166C98.7337 50.4434 97.4779 50.9661 96.1672 50.9704C94.8564 50.9748 93.5972 50.4606 92.6642 49.5399L89.9343 46.8001L89.8344 46.9001C89.791 46.7782 89.7189 46.6684 89.6243 46.5801C84.9892 43.07 79.4537 40.9464 73.6602 40.4558C67.8668 39.9652 62.053 41.1276 56.8936 43.8082C51.7342 46.4887 47.4408 50.5775 44.5117 55.6C41.5826 60.6224 40.1379 66.3726 40.3453 72.1831C40.5527 77.9936 42.4037 83.6261 45.6834 88.427C48.9631 93.2278 53.537 97.0001 58.8744 99.3061C64.2117 101.612 70.0937 102.357 75.8374 101.455C81.5811 100.552 86.9512 98.0393 91.3243 94.2077C92.1476 93.2878 92.5994 92.0947 92.592 90.8602C92.5846 89.6256 92.1185 88.438 91.2842 87.528C89.3143 85.3981 85.9445 85.9581 84.2746 87.328C81.2299 89.8042 77.5501 91.374 73.6556 91.858C69.7611 92.342 65.809 91.7207 62.2508 90.0652C58.6926 88.4096 55.6719 85.7865 53.5338 82.4956C51.3957 79.2047 50.2265 75.3787 50.1597 71.4548C50.0929 67.5309 51.1313 63.6673 53.1561 60.3055C55.181 56.9438 58.1107 54.2194 61.6104 52.4437C65.1102 50.668 69.0389 49.9126 72.9476 50.2638C76.8564 50.6149 80.5875 52.0586 83.7147 54.4297L83.7446 54.4097L85.5145 56.1796C88.2774 58.9302 92.0186 60.4725 95.9172 60.4681C99.8158 60.4637 103.553 58.9131 106.31 56.1564C109.067 53.3996 110.618 49.6619 110.622 45.7633C110.626 41.8647 109.084 38.1236 106.334 35.3607L106.113 35.1407C106.079 34.9833 106.003 34.8382 105.893 34.7207C98.7305 27.8662 89.704 23.2782 79.9448 21.5316C70.1857 19.7849 60.1281 20.9573 51.0324 24.9018C41.9366 28.8463 34.2072 35.3875 28.8129 43.7057C23.4185 52.0239 20.5992 61.7491 20.708 71.6628C20.8167 81.5764 23.8488 91.2374 29.4243 99.4353C34.9999 107.633 42.8709 114.003 52.051 117.747C61.2311 121.491 71.3119 122.443 81.0304 120.482C90.7488 118.522 99.6726 113.737 106.683 106.727C106.698 106.693 106.715 106.659 106.733 106.627C107.636 105.783 108.822 105.307 110.058 105.293C111.294 105.279 112.49 105.729 113.411 106.552C114.333 107.376 114.913 108.514 115.037 109.744C115.161 110.974 114.821 112.205 114.083 113.197C104.952 122.524 93.0347 128.628 80.13 130.588C67.2253 132.548 54.0332 130.258 42.5441 124.063C31.0551 117.869 21.8925 108.105 16.439 96.2462C10.9855 84.3873 9.53687 71.0764 12.3118 58.3221C15.0867 45.5677 21.9345 34.0618 31.822 25.5406C41.7095 17.0194 54.1003 11.9452 67.1246 11.0836C80.1488 10.222 93.1 13.6198 104.024 20.7642C114.948 27.9087 123.252 38.4122 127.682 50.6899C128.412 52.7198 130.122 55.6796 133.612 55.4597C134.287 55.4589 134.953 55.3018 135.557 55.0006C136.161 54.6994 136.687 54.2624 137.094 53.7238C137.501 53.1851 137.777 52.5596 137.902 51.8961C138.027 51.2327 137.996 50.5494 137.812 49.8999C133.216 35.3825 124.014 22.7583 111.6 13.9399Z" fill-rule="evenodd" stroke="rgb(255,255,255)" stroke-linecap="round" stroke-linejoin="round" stroke-width="1.99989927" />
</svg>
